<svg height="512" viewBox="0 0 60 60" width="512" xmlns="http://www.w3.org/2000/svg"><g id="Page-1" fill="none" fill-rule="evenodd"><g id="092---Newsletter-Email" fill="rgb(0,0,0)" fill-rule="nonzero"><path id="Shape" d="m58.721 21.584-8.721-6.105v-13.479c0-1.1045695-.8954305-2-2-2h-36c-1.1045695 0-2 .8954305-2 2v13.479l-8.72 6.105c-.80192542.5611596-1.27968459 1.4782332-1.28 2.457v31.959c0 2.209139 1.790861 4 4 4h52c2.209139 0 4-1.790861 4-4v-31.959c-.000087-.9785828-.4774537-1.8956196-1.279-2.457zm-.883 35.2-19.814-15.784 19.9760006-15.921-.0000006 30.921c.0002189.2703114-.0549134.537805-.162.786zm-.506-33.733-7.332 5.849v-10.979zm-9.332-21.051v28.491l-11.581 9.23-3.307-2.634c-1.8196202-1.4559027-4.4053798-1.4559027-6.225 0l-3.306 2.634-11.581-9.23v-28.491zm-45.838 54.786c-.10708661-.248195-.16221887-.5156886-.162-.786l-.00000065-30.921 19.97600065 15.921zm7.838-27.886-7.332-5.847 7.332-5.132zm-6 29.1c-.046 0-.089-.01-.135-.014l24.267-19.333c1.0916144-.873991 2.6433856-.873991 3.735 0l24.268 19.333c-.046 0-.089.014-.135.014z"/><path id="Shape" d="m43 11c.4851707.000473.9000069.3491365.9839455.8269912.0839386.4778548-.1872399.9470217-.6432053 1.1128119-.4559653.1657902-.9651545-.0196329-1.2077402-.4398031-.2843876-.4596821-.882589-.61017-1.3506397-.3397768s-.6365131.8637835-.3803603 1.3397768c.7279453 1.2608382 2.2560751 1.8170246 3.6241605 1.3190692 1.3680854-.4979555 2.1811672-1.9062958 1.9283301-3.3400638-.252837-1.433768-1.4986001-2.47904238-2.9544906-2.4790054-.4851707-.00047298-.9000069-.34913653-.9839455-.82699124-.0839386-.47785472.1872399-.94702164.6432053-1.11281187.4559653-.16579023.9651545.01963291 1.2077402.43980311.2843876.45968211.882589.61017004 1.3506397.33977682.4680507-.27039323.6365131-.86378348.3803603-1.33977682-.7279453-1.26083818-2.2560751-1.81702464-3.6241605-1.31906917s-2.1811672 1.90629574-1.9283301 3.34006374c.252837 1.433768 1.4986001 2.47904243 2.9544906 2.47900543z"/><path id="Shape" d="m31.831 14.985c.4344857.0748232.8667085-.1437255 1.064-.538l1.105-2.211 1.1 2.211c.1702259.3406694.5191744.5550788.9.553.0566624-.0000747.1132102-.0050937.169-.015.4339736-.0745069.7681445-.4241073.823-.861l1-8c.054588-.54031437-.3320292-1.02543739-.8709005-1.0927963-.5388712-.06735891-1.0330074.30766994-1.1130995.8447963l-.591 4.724-.517-1.047c-.187968-.31527061-.5279475-.50839059-.895-.50839059s-.707032.19311998-.895.50839059l-.527 1.047-.591-4.723c-.036479-.36107035-.265713-.67403786-.5989572-.81774159-.3332443-.14370374-.7181879-.09558579-1.0058053.12572565-.2876173.22131144-.4327598.58107601-.3792375.94001594l1 8c.0552638.4365061.3893443.7856061.823.86z"/><path id="Shape" d="m15 15c.5522847 0 1-.4477153 1-1v-3.764l2.105 4.211c.1694246.3390516.515974.5531766.895.553.0773827-.0003008.154503-.0090187.23-.026.4515461-.1067164.7703755-.510015.77-.974v-8c0-.55228475-.4477153-1-1-1s-1 .44771525-1 1v3.764l-2.1-4.211c-.2040519-.42147024-.6732513-.64490274-1.129074-.53766446-.4558226.10723828-.7761896.51642664-.770926.98466446v8c0 .5522847.4477153 1 1 1z"/><path id="Shape" d="m23 15h4c.5522847 0 1-.4477153 1-1s-.4477153-1-1-1h-3v-2h1c.5522847 0 1-.4477153 1-1 0-.55228475-.4477153-1-1-1h-1v-2h3c.5522847 0 1-.44771525 1-1s-.4477153-1-1-1h-4c-.5522847 0-1 .44771525-1 1v8c0 .5522847.4477153 1 1 1z"/><path id="Shape" d="m16 25h28c1.1045695 0 2-.8954305 2-2v-4c0-1.1045695-.8954305-2-2-2h-28c-1.1045695 0-2 .8954305-2 2v4c0 1.1045695.8954305 2 2 2zm0-6h28v4h-28z"/><path id="Shape" d="m15 29h30c.5522847 0 1-.4477153 1-1s-.4477153-1-1-1h-30c-.5522847 0-1 .4477153-1 1s.4477153 1 1 1z"/><path id="Shape" d="m42 31h-24c-.5522847 0-1 .4477153-1 1s.4477153 1 1 1h24c.5522847 0 1-.4477153 1-1s-.4477153-1-1-1z"/><path id="Shape" d="m55 32c-.5522847 0-1 .4477153-1 1v15c0 .5522847.4477153 1 1 1s1-.4477153 1-1v-15c0-.5522847-.4477153-1-1-1z"/><path id="Shape" d="m5 32c-.55228475 0-1 .4477153-1 1v15c0 .5522847.44771525 1 1 1s1-.4477153 1-1v-15c0-.5522847-.44771525-1-1-1z"/><path id="Shape" d="m40 54h-20c-.5522847 0-1 .4477153-1 1s.4477153 1 1 1h20c.5522847 0 1-.4477153 1-1s-.4477153-1-1-1z"/></g></g></svg>